<?xml version="1.0" encoding="UTF-8"?>
<svg width="175px" height="106px" viewBox="0 0 175 106" version="1.1" xmlns="http://www.w3.org/2000/svg" xmlns:xlink="http://www.w3.org/1999/xlink">
    <title>Group 12</title>
    <g id="Payment-Directory" stroke="none" stroke-width="1" fill="none" fill-rule="evenodd">
        <g id="Home" transform="translate(-887.000000, -896.000000)">
            <g id="Group-12" transform="translate(887.000000, 896.000000)">
                <rect id="Rectangle-Copy" x="0" y="0" width="174.924" height="105.264"></rect>
                <g id="tencent" transform="translate(17.028000, 44.118000)" fill="#9BA6AB" fill-rule="nonzero">
                    <path d="M0.66576384,0.01387008 L0.02774016,2.4966144 L5.92252416,2.4966144 L3.77266176,11.1515443 L2.17760256,17.5317811 L6.0334848,17.5317811 L7.628544,11.1515443 L9.79227648,2.4966144 L15.6731904,2.4966144 L16.2834739,0.01387008 C16.2834739,0.01387008 0.66576384,0.01387008 0.66576384,0.01387008 Z M118.533704,0.2080512 C118.214692,1.49796864 117.93729,2.51048448 117.646019,3.37042944 L116.20353,3.37042944 L116.675113,3.07915776 C117.479578,2.55209472 117.88181,2.2885632 117.88181,2.24695296 C117.451837,1.27604736 117.091215,0.61028352 116.758333,0.2774016 C116.744463,0.22192128 116.13418,0.59641344 114.955223,1.35926784 L114.552991,1.60892928 C114.566861,1.62279936 114.608471,1.70601984 114.705562,1.81698048 C115.121664,2.3579136 115.468416,2.87110656 115.745818,3.37042944 L114.552991,3.37042944 L114.164628,5.14579968 L116.841554,5.14579968 L116.647373,5.50642176 L116.453192,5.86704384 L113.568215,5.86704384 L113.207593,7.64241408 L115.204884,7.64241408 C114.35881,8.68267008 113.346294,9.51487488 112.167337,10.1390285 L114.039798,1.2483072 L108.880128,1.2483072 L106.952187,10.4580403 C106.896707,10.6938317 106.841226,10.929623 106.785746,11.1515443 C106.341903,12.9269146 105.662269,14.5358438 104.774584,15.950592 C105.315517,16.4360448 105.75936,16.9492378 106.133852,17.504041 C107.215718,15.9644621 108.061793,13.9949107 108.699817,11.5676467 L109.823293,11.5676467 L109.18527,14.5774541 C109.129789,14.9935565 108.713687,15.1738675 107.950833,15.1045171 C108.103404,15.8396314 108.172754,16.5747456 108.117274,17.3514701 C109.948124,17.3376 110.87742,16.9214976 110.91903,16.0754227 L111.959286,11.1515443 L112.028636,10.8186624 C112.139597,10.929623 112.250557,11.0405837 112.347648,11.1515443 C112.597309,11.442816 112.791491,11.7340877 112.916321,12.0253594 C113.193723,11.8866586 113.526605,11.6786074 113.914967,11.3457254 L113.235333,13.5510682 L119.407519,13.5510682 L119.296558,14.1197414 C119.046897,15.3125683 118.714015,15.8951117 118.284042,15.8118912 L118.616924,14.1197414 L112.000896,14.1197414 L111.612534,15.8812416 L117.007995,15.8812416 C117.313137,16.5470054 117.451837,17.2266394 117.396357,17.9340134 C119.116247,17.8785331 120.170373,17.6150016 120.572605,17.1295488 C120.697436,16.990848 120.836137,16.7411866 120.974838,16.3250842 C121.252239,15.4790093 121.585121,14.2584422 121.987354,12.6356429 L122.223145,11.7063475 L119.934582,11.7063475 L120.059412,11.1515443 L120.225853,10.3054694 C120.628086,10.6660915 120.988708,10.9434931 121.30772,11.1515443 C121.543511,11.3041152 121.737692,11.4289459 121.918003,11.5121664 C122.015094,11.3873357 122.112184,11.262505 122.209275,11.1515443 C122.805688,10.4303002 123.360492,9.83388672 123.887555,9.34843392 C122.500547,8.96007168 121.488031,8.3913984 120.850007,7.65628416 L123.887555,7.65628416 L124.248177,5.88091392 L118.797235,5.88091392 C118.949806,5.67286272 119.074637,5.43707136 119.185597,5.15966976 L123.679503,5.15966976 L124.040125,3.38429952 L122.431196,3.38429952 C123.13857,2.69079552 123.748854,2.13599232 124.317527,1.69214976 L122.431196,0.52706304 C121.820913,1.30378752 121.169019,2.05277184 120.461645,2.774016 L121.612861,3.46752 L119.976192,3.46752 L120.211983,2.71853568 L120.503255,1.96955136 C120.752916,1.34539776 120.960968,0.87381504 121.099668,0.56867328 C121.113539,0.44384256 121.030318,0.38836224 120.780657,0.36062208 C120.309074,0.2774016 119.56009,0.22192128 118.533704,0.2080512 Z M129.94878,0.346752 C129.380106,0.54093312 128.478551,0.88768512 127.230244,1.40087808 C127.618606,2.52435456 127.909878,3.63396096 128.104059,4.75743744 C128.547901,4.59099648 129.504937,4.25811456 130.947425,3.7449216 C130.351012,1.56731904 130.00426,0.44384256 129.94878,0.346752 Z M132.057032,1.30378752 L131.613189,3.35655936 L133.305339,3.35655936 L132.500874,7.19857152 L130.378752,7.19857152 L129.934909,9.25134336 L132.070902,9.25134336 L131.668669,11.1376742 L130.378752,17.2682496 L132.750536,17.2682496 L134.026583,11.1376742 L134.428815,9.25134336 L136.120965,9.25134336 L135.788083,10.8047923 C135.760343,10.915753 135.746473,11.0267136 135.718733,11.1376742 C135.28876,13.4123674 135.510682,15.1877376 136.370627,16.463785 C136.89769,17.2127693 137.535713,17.5317811 138.298568,17.4208205 C139.089162,17.4624307 139.879757,16.1863834 140.656481,13.6065485 C139.949107,13.2875366 139.297213,13.010135 138.72854,12.7604736 C138.340178,13.9394304 138.104387,14.3277926 138.007296,13.9116902 C137.854725,13.3014067 137.882465,12.3859814 138.090516,11.1515443 C138.159867,10.749312 138.243087,10.3193395 138.340178,9.86162688 L140.143288,1.3176576 L132.057032,1.3176576 L132.057032,1.30378752 Z M96.8131584,1.51183872 L96.0086938,4.7851776 L92.9156659,4.7851776 L92.3192525,7.19857152 L103.651108,7.19857152 L96.8131584,1.51183872 Z M110.475187,3.06528768 L111.598664,3.06528768 L111.071601,5.58964224 L109.961994,5.58964224 L110.475187,3.06528768 Z M135.663252,3.37042944 L137.438623,3.37042944 L136.634158,7.2124416 L134.858788,7.2124416 L135.663252,3.37042944 Z M20.7218995,4.06393344 C18.3639859,4.06393344 16.3250842,4.67421696 14.5913242,5.90865408 C12.8714342,7.15696128 11.7479578,8.79363072 11.2347648,10.8047923 C11.2070246,10.929623 11.1792845,11.0267136 11.1515443,11.1376742 C10.7631821,13.010135 11.1099341,14.5358438 12.1918003,15.7009306 C13.343017,16.9214976 15.1322573,17.5317811 17.5317811,17.5317811 C21.6373248,17.5317811 24.785833,15.0212966 25.1048448,14.7577651 L23.3294746,14.3555328 C22.9133722,14.4526234 20.624809,15.1183872 18.3501158,14.910336 C15.4651392,14.6468045 14.8132454,12.5385523 14.9796864,11.4982963 L26.5473331,11.4982963 L26.6582938,11.1654144 L26.7415142,10.8047923 C27.2685773,8.69654016 26.9911757,7.04600064 25.9093094,5.86704384 C24.8135731,4.6464768 23.0936832,4.06393344 20.7218995,4.06393344 Z M54.9809971,4.06393344 C52.4982528,4.06393344 50.2651699,4.70195712 48.2401382,6.01961472 C46.2012365,7.32340224 44.9667994,8.96007168 44.4813466,10.8602726 C44.4536064,10.9712333 44.4119962,11.0544538 44.3981261,11.1515443 C44.037504,12.9130445 44.5090867,14.4110131 45.7990042,15.6315802 C47.158272,16.9076275 49.0862131,17.5456512 51.5966976,17.5456512 C53.1085363,17.5456512 54.7035955,17.2266394 56.3680051,16.6163558 L57.3389107,12.7327334 C56.2293043,13.5926784 55.300009,14.1613517 54.5648947,14.4526234 C53.8020403,14.7577651 52.9837056,14.9242061 52.0821504,14.9242061 C50.6812723,14.9242061 49.6132762,14.5497139 48.9059021,13.7729894 C48.2678784,13.0794854 48.0459571,12.2056704 48.2262682,11.1654144 C48.2401382,11.0544538 48.2817485,10.9434931 48.3094886,10.8325325 C48.6007603,9.66744576 49.3081344,8.68267008 50.4316109,7.9059456 C51.5550874,7.12922112 52.8172646,6.74085888 54.2320128,6.74085888 C55.133568,6.74085888 55.8548122,6.89342976 56.4373555,7.2124416 C57.033769,7.51758336 57.6579226,8.08625664 58.3098163,8.90459136 L59.2807219,4.97935872 C58.0046746,4.35520512 56.5760563,4.06393344 54.9809971,4.06393344 Z M68.9620378,4.06393344 C66.6041242,4.06393344 64.5652224,4.67421696 62.8314624,5.90865408 C61.0977024,7.15696128 59.988096,8.79363072 59.474903,10.8047923 C59.4471629,10.929623 59.4194227,11.0267136 59.3916826,11.1376742 C59.0033203,13.010135 59.3500723,14.5358438 60.4319386,15.7009306 C61.5831552,16.9214976 63.3723955,17.5317811 65.7719194,17.5317811 C69.877463,17.5317811 73.0259712,15.0212966 73.344983,14.7577651 L71.5696128,14.3555328 C71.1535104,14.4526234 68.8649472,15.1183872 66.5902541,14.910336 C63.7052774,14.6468045 63.0533837,12.5385523 63.2198246,11.4982963 L74.7874714,11.4982963 L74.898432,11.1654144 L74.9816525,10.8047923 C75.5087155,8.69654016 75.245184,7.04600064 74.1771878,5.86704384 C73.0814515,4.6464768 71.3338214,4.06393344 68.9620378,4.06393344 Z M38.8778342,4.42455552 C37.2411648,4.42455552 35.6461056,4.9238784 34.0787866,5.95026432 L30.6251366,4.7851776 L29.0300774,11.1515443 L27.4350182,17.5317811 L31.1938099,17.5317811 L32.7195187,11.3734656 C32.7333888,11.2902451 32.761129,11.2070246 32.7888691,11.1376742 C33.1772314,9.66744576 33.7042944,8.62718976 34.3423181,8.01690624 C35.021952,7.37888256 35.9651174,7.05987072 37.1995546,7.05987072 C38.3369011,7.05987072 39.0720154,7.29566208 39.3910272,7.78111488 C39.710039,8.26656768 39.710039,9.14038272 39.3910272,10.3886899 L39.2245862,11.1376742 L37.615657,17.517911 L41.3744486,17.517911 L42.9695078,11.1376742 L43.3301299,9.69518592 C43.7739725,7.89207552 43.6630118,6.61602816 42.9417677,5.81156352 C42.1095629,4.89613824 40.7641651,4.42455552 38.8778342,4.42455552 L38.8778342,4.42455552 Z M86.7989606,4.42455552 C85.1622912,4.42455552 83.567232,4.9238784 81.999913,5.95026432 L78.546263,4.7851776 L76.9512038,11.1515443 L75.3561446,17.5317811 L79.1149363,17.5317811 L80.6406451,11.3734656 C80.6545152,11.2902451 80.6822554,11.2070246 80.7099955,11.1376742 C81.0983578,9.66744576 81.6254208,8.62718976 82.2634445,8.01690624 C82.9430784,7.37888256 83.8862438,7.05987072 85.120681,7.05987072 C86.2580275,7.05987072 86.9931418,7.29566208 87.3121536,7.78111488 C87.6311654,8.26656768 87.6311654,9.14038272 87.3121536,10.3886899 L87.1179725,11.1376742 L85.5229133,17.517911 L89.281705,17.517911 L90.8767642,11.1376742 L91.2373862,9.69518592 C91.6812288,7.89207552 91.5563981,6.61602816 90.849024,5.81156352 C90.0445594,4.89613824 88.6852915,4.42455552 86.7989606,4.42455552 L86.7989606,4.42455552 Z M124.927811,5.7560832 L124.483968,7.8365952 L126.57835,7.8365952 L125.884846,11.1515443 L125.441004,13.356887 C125.343913,13.8145997 124.969421,14.3000525 124.331397,14.8271155 C124.137216,14.9796864 124.026255,15.076777 124.012385,15.1183872 C124.248177,15.8535014 124.664279,16.5608755 125.246822,17.2127693 C125.288433,17.2266394 125.538094,17.0047181 125.968067,16.5747456 C126.60609,15.8951117 128.22889,14.4110131 130.850335,12.0947098 C130.836465,12.0669696 130.697764,11.7618278 130.420362,11.1792845 L130.392622,11.1376742 L130.00426,10.2915994 L129.574287,10.6522214 C129.366236,10.8325325 129.172055,10.9989734 129.005614,11.1376742 C128.547901,11.5399066 128.201149,11.8311782 127.965358,12.0114893 L128.159539,11.1376742 L129.283016,5.74221312 L124.927811,5.74221312 L124.927811,5.7560832 Z M20.1254861,6.71311872 C22.1227776,6.71311872 23.1769037,7.4898432 23.3017344,9.07103232 L15.8118912,9.07103232 C16.0199424,8.71041024 16.2696038,8.37752832 16.5747456,8.10012672 C16.8798874,7.80885504 17.2127693,7.5591936 17.5872614,7.3511424 C17.9756237,7.1430912 18.377856,6.99052032 18.7939584,6.87955968 C19.237801,6.76859904 19.6677734,6.71311872 20.1254861,6.71311872 Z M68.3656243,6.71311872 C70.3629158,6.71311872 71.4170419,7.4898432 71.5418726,9.07103232 L64.0520294,9.07103232 C64.2600806,8.71041024 64.5097421,8.37752832 64.8148838,8.10012672 C65.1200256,7.80885504 65.4667776,7.5591936 65.8273997,7.3511424 C66.2157619,7.1430912 66.6179942,6.99052032 67.0340966,6.87955968 C67.4779392,6.76859904 67.9079117,6.71311872 68.3656243,6.71311872 Z M109.587502,7.3511424 L110.697108,7.3511424 L110.211656,9.709056 L109.102049,9.709056 L109.587502,7.3511424 Z M117.715369,7.64241408 L118.367263,7.64241408 C118.450483,7.89207552 118.575314,8.14173696 118.727885,8.3913984 L117.118956,8.3913984 L117.410227,8.00303616 L117.715369,7.64241408 Z M95.2735795,7.75337472 L94.4275046,11.1515443 L92.8185754,17.5317811 L96.5357568,17.5317811 L98.1446861,11.1515443 L98.990761,7.75337472 C98.990761,7.75337472 95.2735795,7.75337472 95.2735795,7.75337472 Z M115.426806,10.0696781 L118.075991,10.0696781 L117.86794,11.1515443 L117.715369,11.7618278 L115.884518,11.7618278 C115.953869,11.5399066 116.009349,11.3318554 116.0787,11.1515443 C116.14805,10.9434931 116.20353,10.7631821 116.272881,10.5967411 C116.18966,10.5412608 116.13418,10.5135206 116.0787,10.5135206 L114.969093,10.5135206 L115.426806,10.0696781 Z" id="path22339"></path>
                </g>
            </g>
        </g>
    </g>
</svg>