<?xml version="1.0" encoding="UTF-8"?>
<svg width="175px" height="106px" viewBox="0 0 175 106" version="1.1" xmlns="http://www.w3.org/2000/svg" xmlns:xlink="http://www.w3.org/1999/xlink">
    <title>Group 8</title>
    <g id="Payment-Directory" stroke="none" stroke-width="1" fill="none" fill-rule="evenodd">
        <g id="Home" transform="translate(-1076.000000, -775.000000)">
            <g id="Group-8" transform="translate(1076.000000, 775.000000)">
                <rect id="Rectangle-Copy" x="0" y="0" width="174.924" height="105.264"></rect>
                <g id="Bandai" transform="translate(38.700000, 19.350000)" fill-rule="nonzero">
                    <path d="M97.057876,38.5779112 C98.6865029,33.2848739 96.447141,27.9918365 92.3755738,23.3095343 C91.9684171,22.9023776 91.5612603,22.4952208 91.1541036,21.8844858 C90.9505253,22.2916425 90.9505253,22.6987992 90.7469469,23.1059559 C90.1362118,24.9381611 89.7290551,26.7703664 89.7290551,28.3989932 C89.7290551,33.0812955 91.9684171,37.1528627 94.4113574,41.2244299 C94.6149357,41.6315866 95.0220924,42.2423217 95.2256708,42.6494784 C95.2256708,42.4459 95.4292492,42.2423217 95.4292492,42.0387433 C96.0399842,41.2244299 96.8542977,39.595803 97.057876,38.5779112" id="path9469" fill="#9BA6AB" opacity="0.5"></path>
                    <path d="M45.7561295,58.7321688 C39.6487788,57.714277 30.0805959,56.8999635 22.5481966,55.0677583 C20.9195697,54.6606016 19.4945212,54.2534449 18.0694727,53.8462881 C19.4945212,55.2713367 21.1231481,56.8999635 22.1410399,57.5106986 C27.2304989,61.3786874 33.3378496,64.6359412 41.2774056,65.8574113 C50.8455885,67.2824598 62.8567117,67.0788815 71.6105812,64.0252061 C72.2213162,63.8216277 72.8320513,63.6180494 73.4427864,63.414471 C72.6284729,63.414471 71.6105812,63.2108927 70.7962677,63.2108927 C61.2280848,62.3965792 51.659902,59.7500606 45.7561295,58.7321688" id="path9471" fill="#9BA6AB" opacity="0.5"></path>
                    <path d="M84.0288611,14.5556648 C86.6753797,17.2021835 89.3218984,20.0522805 91.1541036,22.0880641 C92.3755738,17.2021835 91.7648387,12.927038 89.11832,9.26262749 C85.6574879,4.37674687 78.1250886,3.35885508 71.4070028,4.58032523 C71.4070028,4.58032523 71.2034244,4.58032523 70.9998461,4.58032523 C71.4070028,4.78390359 71.8141595,5.19106031 72.4248946,5.39463867 C76.2928834,7.63400062 80.568029,11.0948327 84.0288611,14.5556648" id="path9473" fill="#9BA6AB"></path>
                    <path d="M75.0714133,62.6001576 C74.4606782,63.0073143 73.8499431,63.2108927 73.0356297,63.6180494 C74.2570998,63.6180494 75.47857,63.8216277 76.4964618,63.8216277 C86.6753797,63.8216277 95.4292492,60.9715307 96.8542977,50.5890344 C97.057876,48.9604075 96.8542977,47.535359 96.447141,45.9067321 C96.0399842,44.8888403 95.6328275,43.8709485 95.0220924,42.6494784 C94.4113574,43.8709485 93.5970439,45.2959971 92.7827305,46.5174672 C88.507585,53.0319747 81.7894991,58.5285904 75.0714133,62.6001576" id="path9475" fill="#9BA6AB"></path>
                    <path d="M15.8301108,51.8105045 C8.50128983,44.0745269 6.87266295,34.9135007 9.51918162,26.566788 C9.92633834,25.5488962 10.3334951,24.5310044 10.7406518,23.5131126 C9.72275998,24.1238477 8.70486819,24.7345828 7.68697639,25.5488962 C-1.67762813,32.8777171 -2.08478485,41.2244299 8.90844655,49.3675642 C11.1478085,50.9961911 14.6086406,52.8283963 17.4587376,53.8462881 C17.4587376,53.8462881 17.662316,53.8462881 17.662316,53.8462881 C17.0515809,53.0319747 16.4408458,52.2176613 15.8301108,51.8105045" id="path9477" fill="#9BA6AB"></path>
                    <path d="M44.331081,11.7055678 C56.1386259,8.2447357 67.7425923,5.39463867 68.149749,5.19106031 C68.5569058,5.19106031 70.1855326,4.78390359 70.9998461,4.58032523 C67.539014,2.54454164 63.6710251,1.11949313 58.7851445,0.508758051 C46.9775997,-1.11986882 38.0201519,3.15527672 28.6555474,8.44831406 C20.9195697,12.7234596 14.2014839,16.9986051 10.9442301,23.5131126 C13.5907488,21.8844858 16.2372675,20.6630156 19.0873645,19.4415454 C23.36251,17.8129186 38.630887,13.537773 44.331081,11.7055678" id="path9479" fill="#9BA6AB" opacity="0.5"></path>
                    <path d="M94.4113574,41.2244299 C92.1719954,37.1528627 89.9326335,33.0812955 89.7290551,28.3989932 C89.7290551,26.7703664 90.1362118,25.1417395 90.7469469,23.1059559 C90.9505253,22.6987992 90.9505253,22.2916425 91.1541036,21.8844858 C89.11832,19.6451238 86.6753797,16.7950268 84.0288611,14.3520865 C80.568029,10.8912544 76.2928834,7.63400062 72.6284729,5.39463867 C72.2213162,5.19106031 71.8141595,4.78390359 71.2034244,4.58032523 C70.389111,4.78390359 68.7604841,5.19106031 68.3533274,5.19106031 C67.7425923,5.39463867 56.1386259,8.2447357 44.5346594,11.7055678 C38.8344653,13.537773 23.36251,17.6093402 19.2909429,19.2379671 C16.4408458,20.4594372 13.5907488,21.6809074 11.1478085,23.3095343 C10.7406518,24.3274261 10.3334951,25.3453179 9.92633834,26.3632097 C7.07624131,34.7099224 8.90844655,43.8709485 16.2372675,51.6069262 C16.6444242,52.0140829 17.4587376,52.8283963 18.2730511,53.6427098 C19.6980996,54.0498665 21.1231481,54.6606016 22.751775,54.8641799 C30.4877526,56.6963852 39.8523571,57.5106986 45.9597079,58.5285904 C51.8634803,59.5464822 61.4316632,61.9894225 70.5926894,63.0073143 C71.6105812,63.0073143 72.4248946,63.2108927 73.239208,63.2108927 C73.8499431,63.0073143 74.6642565,62.6001576 75.2749916,62.1930009 C81.9930775,58.325012 88.7111633,52.624818 93.1898872,46.1103105 C94.0042007,44.8888403 94.8185141,43.4637918 95.4292492,42.2423217 C95.0220924,42.2423217 94.8185141,41.6315866 94.4113574,41.2244299" id="path9481" fill="#9BA6AB" opacity="0.8"></path>
                    <path d="M22.3446182,24.7345828 L23.36251,24.7345828 C24.3804018,24.7345828 25.601872,24.9381611 25.601872,25.9560529 C25.601872,26.9739447 24.3804018,27.3811015 23.36251,27.3811015 L22.3446182,27.3811015 L22.3446182,24.7345828 Z M19.0873645,35.3206575 L24.3804018,35.3206575 C26.6197638,35.3206575 29.2662825,34.7099224 29.2662825,31.656247 C29.2662825,30.0276201 28.451969,29.2133067 26.8233421,28.80615 L26.8233421,28.80615 C28.2483907,28.3989932 29.0627041,27.3811015 29.0627041,25.7524746 C29.0627041,23.5131126 27.4340772,22.4952208 24.9911369,22.4952208 L19.2909429,22.4952208 L19.2909429,35.3206575 L19.0873645,35.3206575 Z M22.3446182,29.8240418 L23.36251,29.8240418 C24.5839802,29.8240418 25.8054504,30.0276201 25.8054504,31.4526686 C25.8054504,32.8777171 24.5839802,32.8777171 23.36251,32.8777171 L22.3446182,32.8777171 L22.3446182,29.8240418 Z" id="path9483" fill="#FFFFFF"></path>
                    <path d="M28.8591257,35.3206575 L32.3199578,35.3206575 L33.3378496,32.4705604 L38.0201519,32.4705604 L39.0380437,35.3206575 L42.7024542,35.3206575 L37.8165735,22.2916425 L33.7450064,22.2916425 L28.8591257,35.3206575 Z M37.2058385,30.0276201 L34.1521631,30.0276201 L35.7807899,24.9381611 L35.7807899,24.9381611 L37.2058385,30.0276201 L37.2058385,30.0276201 Z" id="path9485" fill="#FFFFFF"></path>
                    <polygon id="path9487" fill="#FFFFFF" points="43.1096109 22.2916425 47.3847564 22.2916425 51.659902 31.0455119 51.659902 31.0455119 51.659902 22.2916425 54.7135773 22.2916425 54.7135773 35.3206575 50.6420102 35.3206575 46.3668646 26.3632097 46.3668646 26.3632097 46.570443 35.3206575 43.5167676 35.3206575 43.5167676 22.2916425"></polygon>
                    <path d="M56.5457826,35.3206575 L61.0245065,35.3206575 C65.299652,35.3206575 68.3533274,33.6920306 68.3533274,28.80615 C68.3533274,23.716691 65.299652,22.2916425 61.0245065,22.2916425 L56.5457826,22.2916425 L56.5457826,35.3206575 L56.5457826,35.3206575 Z M59.8030363,24.9381611 L61.0245065,24.9381611 C63.4674468,24.9381611 64.8924953,26.3632097 64.8924953,28.80615 C64.8924953,31.4526686 63.4674468,32.6741388 61.0245065,32.6741388 L59.8030363,32.6741388 L59.8030363,24.9381611 Z" id="path9489" fill="#FFFFFF"></path>
                    <path d="M67.539014,35.3206575 L70.9998461,35.3206575 L72.0177379,32.4705604 L76.7000401,32.4705604 L77.7179319,35.3206575 L81.3823424,35.3206575 L76.4964618,22.2916425 L72.4248946,22.2916425 L67.539014,35.3206575 L67.539014,35.3206575 Z M75.8857267,30.0276201 L72.8320513,30.0276201 L74.4606782,24.9381611 L74.4606782,24.9381611 L75.8857267,30.0276201 L75.8857267,30.0276201 Z" id="path9491" fill="#FFFFFF"></path>
                    <polygon id="path9493" fill="#FFFFFF" points="81.7894991 22.2916425 85.0467529 22.2916425 85.0467529 35.3206575 81.7894991 35.3206575"></polygon>
                    <polygon id="path9495" fill="#FFFFFF" points="19.0873645 38.1707545 23.36251 38.1707545 27.6376556 46.9246239 27.6376556 46.9246239 27.6376556 38.1707545 30.691331 38.1707545 30.691331 51.1997695 26.6197638 51.1997695 22.1410399 42.2423217 22.1410399 42.2423217 22.3446182 51.1997695 19.2909429 51.1997695 19.2909429 38.1707545"></polygon>
                    <path d="M31.302066,50.9961911 L34.7628982,50.9961911 L35.7807899,48.1460941 L40.4630922,48.1460941 L41.480984,50.9961911 L45.1453945,50.9961911 L40.2595138,37.9671761 L36.1879467,37.9671761 L31.302066,50.9961911 Z M39.6487788,45.9067321 L36.5951034,45.9067321 L38.2237303,40.8172732 L38.2237303,40.8172732 L39.6487788,45.9067321 L39.6487788,45.9067321 Z" id="path9497" fill="#FFFFFF"></path>
                    <polygon id="path9499" fill="#FFFFFF" points="45.7561295 38.1707545 51.0491669 38.1707545 53.2885288 46.7210456 53.2885288 46.7210456 55.5278908 38.1707545 60.6173498 38.1707545 60.6173498 51.1997695 57.360096 51.1997695 57.360096 41.2244299 57.360096 41.2244299 54.7135773 51.1997695 51.659902 51.1997695 49.0133833 41.2244299 49.0133833 41.2244299 49.0133833 51.1997695 45.7561295 51.1997695"></polygon>
                    <path d="M72.6284729,50.7926128 C71.6105812,50.9961911 70.5926894,51.4033478 68.9640625,51.4033478 C65.7068087,51.4033478 61.8388199,49.5711426 61.8388199,44.685262 C61.8388199,40.2065381 64.8924953,37.9671761 68.9640625,37.9671761 C70.1855326,37.9671761 71.4070028,38.1707545 72.6284729,38.5779112 L72.4248946,41.4280082 C71.4070028,40.8172732 70.389111,40.6136948 69.1676408,40.6136948 C66.7247005,40.6136948 65.299652,42.4459 65.299652,44.8888403 C65.299652,47.535359 67.1318573,48.9604075 69.5747976,48.9604075 C70.5926894,48.9604075 71.8141595,48.7568292 72.6284729,48.3496724 L72.6284729,50.7926128 L72.6284729,50.7926128 Z" id="path9501" fill="#FFFFFF"></path>
                    <path d="M73.0356297,44.685262 C73.0356297,48.7568292 75.2749916,51.4033478 79.3465588,51.4033478 C83.418126,51.4033478 85.6574879,48.7568292 85.6574879,44.685262 C85.6574879,40.6136948 83.418126,37.9671761 79.3465588,37.9671761 C75.2749916,37.9671761 73.0356297,40.4101164 73.0356297,44.685262 M76.4964618,44.685262 C76.4964618,42.4459 77.3107752,40.6136948 79.3465588,40.6136948 C81.3823424,40.6136948 82.1966558,42.4459 82.1966558,44.685262 C82.1966558,46.7210456 81.3823424,48.7568292 79.3465588,48.7568292 C77.3107752,48.7568292 76.4964618,46.7210456 76.4964618,44.685262" id="path9503" fill="#FFFFFF"></path>
                </g>
            </g>
        </g>
    </g>
</svg>