<?xml version="1.0" encoding="UTF-8"?>
<svg width="175px" height="106px" viewBox="0 0 175 106" version="1.1" xmlns="http://www.w3.org/2000/svg" xmlns:xlink="http://www.w3.org/1999/xlink">
    <title>Group 13</title>
    <g id="Payment-Directory" stroke="none" stroke-width="1" fill="none" fill-rule="evenodd">
        <g id="Home" transform="translate(-1077.000000, -896.000000)">
            <g id="Group-13" transform="translate(1077.000000, 896.000000)">
                <rect id="Rectangle" x="4.39968062e-14" y="0" width="174.15" height="105.264"></rect>
                <g id="Samsung_Logo" transform="translate(20.124000, 30.960000)" fill-rule="nonzero">
                    <path d="M133.819,10.5048499 C135.642928,20.8782994 107.185223,34.4623824 70.2499894,40.8451986 C33.3202911,47.2280147 1.90389264,43.9899165 0.0827323672,33.610974 C-1.7384279,23.2375245 26.7275803,9.65618804 63.6572786,3.27611835 C100.589745,-3.11219078 132.000608,0.128653922 133.819,10.5048499 Z" id="Path" fill="#9BA6AB"></path>
                    <g id="Group" transform="translate(18.576000, 14.706000)" fill="#FFFFFF">
                        <polygon id="Path" points="80.3004751 11.5452451 80.1120609 0.462825763 83.5423079 0.462825763 83.5423079 14.4322619 78.6102888 14.4322619 75.1855834 2.96885794 75.1107718 2.96885794 75.3019568 14.4322619 71.8911054 14.4322619 71.8911054 0.462825763 77.0392467 0.462825763 80.2256635 11.5452451"></polygon>
                        <polygon id="Path" points="17.929829 1.77228402 16.0318329 14.5790115 12.2884858 14.5790115 14.8570148 0.462825763 21.0220387 0.462825763 23.5822554 14.5790115 19.8527623 14.5790115 18.0074113 1.77228402"></polygon>
                        <polygon id="Path" points="34.0918894 11.2545679 35.8042421 0.462825763 41.4566684 0.462825763 41.7559145 14.5790115 38.292418 14.5790115 38.2009817 1.88799046 38.1289409 1.88799046 35.8125544 14.5790115 32.2964127 14.5790115 29.9772554 1.88799046 29.9024439 1.88799046 29.8165492 14.5790115 26.3447402 14.5790115 26.6522987 0.462825763 32.3074959 0.462825763 34.0170778 11.2545679"></polygon>
                        <path d="M6.45318679,10.5970167 C6.58895586,10.9384918 6.5473939,11.3787407 6.48366556,11.6440189 C6.36729208,12.1124889 6.05419199,12.5922473 5.1342873,12.5922473 C4.26425697,12.5922473 3.73780549,12.0842678 3.73780549,11.3110101 L3.73780549,9.94510968 L0.0193955807,9.94510968 L0.0166247835,11.0372656 C0.0166247835,14.1839164 2.44938477,15.1349669 5.05670498,15.1349669 C7.56427649,15.1349669 9.62852044,14.2629354 9.95547452,11.9092971 C10.1244931,10.6901463 9.99703647,9.89148962 9.94162053,9.58952403 C9.35698231,6.63477663 4.09523833,5.75145673 3.70455592,4.10052337 C3.63805679,3.81831254 3.65745237,3.51634695 3.69070194,3.35548678 C3.78767984,2.90677156 4.08969674,2.4100805 4.95695628,2.4100805 C5.76602908,2.4100805 6.245377,2.9208821 6.245377,3.69131767 C6.245377,3.95095163 6.245377,4.56334914 6.245377,4.56334914 L9.70056117,4.56334914 L9.70056117,3.57278912 C9.70056117,0.496691062 6.99072146,0.0169326499 5.02899701,0.0169326499 C2.56298746,0.0169326499 0.548617855,0.846632493 0.180101821,3.14382866 C0.0803531202,3.77880303 0.066499134,4.34322469 0.210580591,5.05157387 C0.817385188,7.93294646 5.7383211,8.76829052 6.45318679,10.5970167 Z" id="Path"></path>
                        <path d="M51.520204,10.5716177 C51.6559731,10.9102707 51.6116404,11.3392312 51.5506828,11.6045094 C51.4370801,12.0729793 51.1267508,12.5442714 50.2123877,12.5442714 C49.3562114,12.5442714 48.8325307,12.0362919 48.8325307,11.2799669 L48.8297599,9.92535492 L45.1501412,9.92535492 L45.1445996,11.0034003 C45.1445996,14.1190079 47.5551932,15.0587699 50.1348054,15.0587699 C52.614669,15.0587699 54.6595173,14.1980269 54.9837006,11.8669654 C55.1527192,10.656281 55.033575,9.86891276 54.9726174,9.57259138 C54.39075,6.64606507 49.184422,5.77121149 48.7965104,4.13438867 C48.7300112,3.85217784 48.7494068,3.55585647 48.7826564,3.40346262 C48.8824051,2.94910318 49.1788804,2.46652266 50.0378275,2.46652266 C50.8413587,2.46652266 51.3096235,2.96321372 51.3096235,3.73082718 C51.3096235,3.98763904 51.3096235,4.59439233 51.3096235,4.59439233 L54.7398705,4.59439233 L54.7398705,3.61229864 C54.7398705,0.570065878 52.0521971,0.0931295742 50.1070975,0.0931295742 C47.6687959,0.0931295742 45.6710511,0.911540984 45.3108474,3.19462661 C45.2110987,3.82113465 45.2000155,4.37426788 45.344097,5.07979496 C45.9398184,7.93294646 50.8136508,8.7626463 51.520204,10.5716177 Z" id="Path"></path>
                        <path d="M63.1603233,12.4680745 C64.1217899,12.4680745 64.421036,11.7907685 64.4875352,11.4436492 C64.5152431,11.2912553 64.5235555,11.0880635 64.5207847,10.9046265 L64.5207847,0.457181546 L68.0258433,0.457181546 L68.0258433,10.5829062 C68.0341557,10.8425401 68.0092185,11.3759186 67.9953645,11.5085577 C67.7487635,14.1444068 65.7039152,14.9995057 63.1575525,14.9995057 C60.608419,14.9995057 58.5607999,14.1444068 58.3169697,11.5085577 C58.3058865,11.3759186 58.2809493,10.839718 58.2864909,10.5829062 L58.2864909,0.457181546 L61.7887787,0.457181546 L61.7887787,10.9018044 C61.7887787,11.0852414 61.7943202,11.2912553 61.8220282,11.4408271 C61.8996105,11.7879464 62.1905443,12.4680745 63.1603233,12.4680745 Z" id="Path"></path>
                        <path d="M92.0735926,12.3185028 C93.0766212,12.3185028 93.4285124,11.67224 93.4922408,11.2968996 C93.517178,11.1360394 93.5254903,10.9384918 93.5227195,10.760699 L93.5227195,8.71184835 L92.1013006,8.71184835 L92.1013006,6.65170928 L97.0166949,6.65170928 L97.0166949,10.4418007 C97.0139241,10.7070789 97.0083825,10.9018044 96.9668205,11.3730965 C96.7368444,13.941215 94.5479145,14.8584002 92.0929882,14.8584002 C89.6325202,14.8584002 87.449132,13.941215 87.2136142,11.3730965 C87.174823,10.9018044 87.1692815,10.7070789 87.1637399,10.4418007 L87.1665107,4.49844064 C87.1665107,4.24727301 87.1969894,3.804202 87.2246974,3.5671449 C87.5322559,0.928473634 89.6325202,0.0790190327 92.0929882,0.0790190327 C94.5506853,0.0790190327 96.7035948,0.922829417 96.9585081,3.5671449 C97.0028409,4.01586012 96.9889869,4.49844064 96.9889869,4.49844064 L96.9889869,4.96973273 L93.4950116,4.96973273 L93.4950116,4.17954241 C93.4977824,4.18236451 93.48947,3.84371152 93.4506788,3.64334183 C93.3924921,3.3300878 93.1264955,2.61327229 92.068051,2.61327229 C91.05671,2.61327229 90.7630055,3.29057829 90.688194,3.64334183 C90.646632,3.82960098 90.6300072,4.08076862 90.6300072,4.30935939 L90.6300072,10.7663432 C90.6272364,10.944136 90.6383196,11.1416836 90.6660276,11.3025438 C90.7214435,11.67224 91.070564,12.3185028 92.0735926,12.3185028 Z" id="Path"></path>
                    </g>
                </g>
            </g>
        </g>
    </g>
</svg>