<?xml version="1.0" encoding="UTF-8"?>
<svg width="175px" height="106px" viewBox="0 0 175 106" version="1.1" xmlns="http://www.w3.org/2000/svg" xmlns:xlink="http://www.w3.org/1999/xlink">
    <title>Group 4</title>
    <g id="Payment-Directory" stroke="none" stroke-width="1" fill="none" fill-rule="evenodd">
        <g id="Home" transform="translate(-696.000000, -775.000000)">
            <g id="Group-4" transform="translate(696.000000, 775.000000)">
                <rect id="Rectangle-Copy" x="0" y="0" width="174.924" height="105.264"></rect>
                <g id="LG" transform="translate(29.412000, 24.768000)" fill-rule="nonzero">
                    <path d="M55.51902,27.72468 C55.51902,12.5388 43.1892,0.20898 28.00332,0.20898 C12.81744,0.20898 0.55728,12.5388 0.55728,27.72468 C0.55728,42.91056 12.81744,55.24038 28.00332,55.24038 C43.1892,55.24038 55.51902,42.91056 55.51902,27.72468 Z" id="Path" fill="#9BA6AB"></path>
                    <polygon id="Path" fill="#FFFFFF" points="34.69068 37.40742 29.04822 37.40742 29.04822 15.88248 26.88876 15.88248 26.88876 39.49722 29.04822 39.49722 29.04822 39.49722 34.69068 39.49722"></polygon>
                    <path d="M48.90132,28.63026 L34.76034,28.63026 L34.76034,26.54046 L50.99112,26.54046 C50.99112,26.95842 50.99112,27.37638 50.99112,27.79434 C50.99112,40.47246 40.68144,50.78214 28.00332,50.78214 C15.3252,50.78214 5.01552,40.47246 5.01552,27.79434 C5.01552,15.11622 15.3252,4.80654 28.00332,4.80654 C28.35162,4.80654 28.69992,4.80654 28.97856,4.80654 L28.97856,6.89634 C28.63026,6.89634 28.28196,6.89634 28.00332,6.89634 C16.43976,6.89634 7.10532,16.23078 7.10532,27.79434 C7.10532,39.3579 16.43976,48.69234 28.00332,48.69234 C39.28824,48.62268 48.4137,39.77586 48.90132,28.63026 L48.90132,28.63026 L48.90132,28.63026 Z" id="Path" fill="#FFFFFF"></path>
                    <path d="M19.43514,22.22154 C21.2463,22.22154 22.6395,20.75868 22.6395,19.01718 C22.6395,17.27568 21.17664,15.81282 19.43514,15.81282 C17.69364,15.81282 16.23078,17.27568 16.23078,19.01718 C16.23078,20.75868 17.62398,22.22154 19.43514,22.22154 L19.43514,22.22154 Z" id="Path" fill="#FFFFFF"></path>
                    <polygon id="Path" fill="#9BA6AB" points="69.17238 41.23872 88.8165 41.23872 88.8165 35.31762 76.9743 35.31762 76.34736 35.31762 76.34736 34.69068 76.34736 14.07132 69.17238 14.07132"></polygon>
                    <path d="M112.57056,15.95214 C110.34144,14.21064 107.41572,13.30506 103.93272,13.30506 C99.82278,13.30506 96.40944,14.55894 93.97134,16.92738 C91.46358,19.43514 90.14004,23.12712 90.14004,27.5157 C90.14004,32.25258 91.53324,36.29286 94.041,38.80062 C96.06114,40.82076 98.70822,41.86566 101.7036,41.86566 C108.39096,41.86566 109.85382,37.89504 109.85382,37.89504 L109.85382,39.7062 L109.85382,41.16906 L115.84458,41.16906 L115.84458,25.84386 L103.86306,25.84386 L103.86306,30.6504 L108.6696,30.6504 L109.3662,30.6504 C109.3662,30.6504 109.43586,36.71082 103.72374,36.71082 C102.26088,36.71082 101.007,36.15354 100.03176,35.1783 C98.49924,33.64578 97.66332,31.06836 97.66332,27.65502 C97.66332,22.08222 99.89244,18.73854 103.58442,18.73854 C105.8832,18.73854 107.6247,20.13174 108.11232,22.2912 L115.77492,22.2912 C115.49628,19.22616 114.66036,17.62398 112.57056,15.95214 L112.57056,15.95214 Z" id="Path" fill="#9BA6AB"></path>
                </g>
            </g>
        </g>
    </g>
</svg>